HIERARCHY
ROOT Hips
{
	OFFSET 0.00000 0.00000 0.00000
	CHANNELS 6 Xposition Yposition Zposition Zrotation Yrotation Xrotation 
	JOINT LHipJoint
	{
		OFFSET 0 0 0
		CHANNELS 3 Zrotation Yrotation Xrotation
		JOINT LeftUpLeg
		{
			OFFSET 1.84395 -1.68683 0.74144
			CHANNELS 3 Zrotation Yrotation Xrotation
			JOINT LeftLeg
			{
				OFFSET 2.27037 -6.23779 0.00000
				CHANNELS 3 Zrotation Yrotation Xrotation
				JOINT LeftFoot
				{
					OFFSET 2.56918 -7.05877 0.00000
					CHANNELS 3 Zrotation Yrotation Xrotation
					JOINT LeftToeBase
					{
						OFFSET 0.22276 -0.61202 1.71784
						CHANNELS 3 Zrotation Yrotation Xrotation
						End Site
						{
							OFFSET 0.00000 -0.00000 0.91613
						}
					}
				}
			}
		}
	}
	JOINT RHipJoint
	{
		OFFSET 0 0 0
		CHANNELS 3 Zrotation Yrotation Xrotation
		JOINT RightUpLeg
		{
			OFFSET -1.76833 -1.68684 0.74144
			CHANNELS 3 Zrotation Yrotation Xrotation
			JOINT RightLeg
			{
				OFFSET -2.49360 -6.85110 0.00000
				CHANNELS 3 Zrotation Yrotation Xrotation
				JOINT RightFoot
				{
					OFFSET -2.55538 -7.02085 0.00000
					CHANNELS 3 Zrotation Yrotation Xrotation
					JOINT RightToeBase
					{
						OFFSET -0.21516 -0.59115 1.68050
						CHANNELS 3 Zrotation Yrotation Xrotation
						End Site
						{
							OFFSET -0.00000 -0.00000 0.89604
						}
					}
				}
			}
		}
	}
	JOINT LowerBack
	{
		OFFSET 0 0 0
		CHANNELS 3 Zrotation Yrotation Xrotation
		JOINT Spine
		{
			OFFSET 0.06382 1.72312 -0.19613
			CHANNELS 3 Zrotation Yrotation Xrotation
			JOINT Spine1
			{
				OFFSET -0.00055 1.73507 0.23859
				CHANNELS 3 Zrotation Yrotation Xrotation
				JOINT Neck
				{
					OFFSET 0 0 0
					CHANNELS 3 Zrotation Yrotation Xrotation
					JOINT Neck1
					{
						OFFSET 0.03638 1.65562 0.09633
						CHANNELS 3 Zrotation Yrotation Xrotation
						JOINT Head
						{
							OFFSET 0.06388 1.62807 -0.32386
							CHANNELS 3 Zrotation Yrotation Xrotation
							End Site
							{
								OFFSET 0.00995 1.67644 -0.12021
							}
						}
					}
				}
				JOINT LeftShoulder
				{
					OFFSET 0 0 0
					CHANNELS 3 Zrotation Yrotation Xrotation
					JOINT LeftArm
					{
						OFFSET 3.09648 1.42991 0.28122
						CHANNELS 3 Zrotation Yrotation Xrotation
						JOINT LeftForeArm
						{
							OFFSET 5.11878 -0.00000 -0.00000
							CHANNELS 3 Zrotation Yrotation Xrotation
							JOINT LeftHand
							{
								OFFSET 3.59971 -0.00000 0.00000
								CHANNELS 3 Zrotation Yrotation Xrotation
								JOINT LeftFingerBase
								{
									OFFSET 0 0 0
									CHANNELS 3 Zrotation Yrotation Xrotation
									JOINT LeftHandIndex1
									{
										OFFSET 0.62877 -0.00000 0.00000
										CHANNELS 3 Zrotation Yrotation Xrotation
										End Site
										{
											OFFSET 0.50693 -0.00000 0.00000
										}
									}
								}
								JOINT LThumb
								{
									OFFSET 0 0 0
									CHANNELS 3 Zrotation Yrotation Xrotation
									End Site
									{
										OFFSET 0.51467 -0.00000 0.51467
									}
								}
							}
						}
					}
				}
				JOINT RightShoulder
				{
					OFFSET 0 0 0
					CHANNELS 3 Zrotation Yrotation Xrotation
					JOINT RightArm
					{
						OFFSET -3.33565 1.14597 0.05047
						CHANNELS 3 Zrotation Yrotation Xrotation
						JOINT RightForeArm
						{
							OFFSET -5.49020 -0.00000 0.00000
							CHANNELS 3 Zrotation Yrotation Xrotation
							JOINT RightHand
							{
								OFFSET -3.20659 -0.00000 -0.00000
								CHANNELS 3 Zrotation Yrotation Xrotation
								JOINT RightFingerBase
								{
									OFFSET 0 0 0
									CHANNELS 3 Zrotation Yrotation Xrotation
									JOINT RightHandIndex1
									{
										OFFSET -0.69188 -0.00000 0.00000
										CHANNELS 3 Zrotation Yrotation Xrotation
										End Site
										{
											OFFSET -0.55781 -0.00000 0.00000
										}
									}
								}
								JOINT RThumb
								{
									OFFSET 0 0 0
									CHANNELS 3 Zrotation Yrotation Xrotation
									End Site
									{
										OFFSET -0.56633 -0.00000 0.56633
									}
								}
							}
						}
					}
				}
			}
		}
	}
}
MOTION
Frames: 12
Frame Time: .0083333
-0.4177 17.4736 7.5182 0 0 0 0 0 0 -21 0 0 0 0 0 0 0 0 0 0 0 0 0 0 21 0 0 0 0 0 0 0 0 0 0 0 0 0 0 0 0 0 0 0 0 0 0 -16 0 0 21 0 0 11 0 0 0 -8 0 0 0 0 0 0 0 0 0 0 0 0 0 0 0 0 0 0 0 0 8 0 0 0 0 0 0 0 0 0 0 0 0 0 0 0 0 0
-0.4177 17.4736 7.5182 -7.4641 -1.3598 7.0428 0.0000 0.0000 0.0000 -21.6218 -36.0735 24.6371 0.0667 -1.6665 -4.5847 -5.6420 40.3687 -33.6308 0.0951 1.9889 5.4749 0.0000 0.0000 0.0000 27.7920 22.5387 8.5379 -0.0058 -0.4912 1.3498 0.4568 -16.7299 -18.7366 -0.0109 -0.6755 1.8563 5.5123 0.7773 0.9608 1.5448 1.4992 -8.4088 -1.5711 0.3826 -9.3491 -11.2869 -11.4400 -0.2697 20.2538 -16.5087 3.9952 7.1722 -8.0162 3.9158 0.0000 0.0000 0.0000 -90.2702 7.7720 -17.6755 10.6741 -17.7871 -1.6750 -0.0000 -0.0000 30.7645 15.1208 -15.3695 -4.0964 -7.1250 0.0000 -0.0000 -8.4206 14.2075 6.1646 0.0000 0.0000 0.0000 90.8392 -6.7657 -14.5320 -8.9827 15.1329 -1.1956 0.0000 0.0000 58.2919 14.4578 -25.5948 -6.3556 7.1250 -0.0000 -0.0000 43.0769 -50.4245 -6.8813
-0.4172 17.4732 7.5183 -7.4950 -1.3996 6.9704 0.0000 0.0000 0.0000 -21.5523 -35.8968 24.6196 0.0674 -1.6744 -4.6068 -5.6040 40.2643 -33.5322 0.0924 1.9599 5.3950 0.0000 0.0000 0.0000 27.8261 22.4302 8.5296 -0.0064 -0.5146 1.4140 0.4442 -16.6080 -18.6760 -0.0088 -0.6054 1.6637 5.4982 0.7684 0.9880 1.5723 1.4872 -8.3445 -1.5334 0.3814 -9.2951 -11.1299 -11.4717 -0.1421 20.1078 -16.5718 4.1313 7.1021 -8.0500 3.9168 0.0000 -0.0000 0.0000 -90.3527 7.8605 -15.9797 11.0522 -18.3682 -1.7923 -0.0000 -0.0000 29.1656 14.3781 -11.8002 -3.0009 -7.1250 0.0000 -0.0000 -8.9340 17.8959 5.8279 0.0000 -0.0000 0.0000 90.7831 -6.6566 -14.0129 -9.0662 15.2659 -1.2175 0.0000 0.0000 57.6160 14.3354 -25.7705 -6.3400 7.1250 -0.0000 -0.0000 43.1081 -50.5807 -7.0782
-0.4168 17.4736 7.5168 -7.4714 -1.4410 6.9191 0.0000 0.0000 0.0000 -21.6251 -35.8740 24.6504 0.0655 -1.6515 -4.5435 -5.5764 40.2362 -33.6319 0.0901 1.9359 5.3284 0.0000 0.0000 0.0000 27.7995 22.3964 8.5221 -0.0069 -0.5362 1.4735 0.4372 -16.5431 -18.6478 -0.0094 -0.6249 1.7173 5.4267 0.7500 1.0239 1.6116 1.4596 -8.2600 -1.4503 0.3780 -9.2257 -11.0970 -11.4886 0.0229 20.1197 -16.5675 3.8914 7.1153 -8.0657 3.8159 0.0000 0.0000 0.0000 -90.3924 7.7951 -16.5445 10.8769 -18.0994 -1.7375 -0.0000 -0.0000 28.9165 14.8355 -14.7804 -3.8658 -7.1250 0.0000 -0.0000 -8.6080 14.8316 6.1891 0.0000 0.0000 0.0000 90.7111 -6.5341 -13.4223 -9.1623 15.4188 -1.2429 0.0000 0.0000 56.8935 14.2066 -25.8518 -6.2994 7.1250 -0.0000 -0.0000 43.0626 -50.6650 -7.1699
-0.4149 17.4742 7.5140 -7.4147 -1.4792 6.8608 0.0000 0.0000 0.0000 -21.7509 -35.8629 24.6812 0.0631 -1.6207 -4.4584 -5.5510 40.2082 -33.7156 0.0966 2.0039 5.5165 0.0000 0.0000 0.0000 27.7287 22.3468 8.5321 -0.0071 -0.5437 1.4939 0.4372 -16.5109 -18.5879 -0.0081 -0.5809 1.5963 5.3429 0.7117 1.1351 1.6611 1.4116 -8.1872 -1.3488 0.3642 -9.2157 -11.0816 -11.4802 0.0826 20.0757 -16.5061 3.5981 7.1137 -8.0507 3.7046 -0.0000 -0.0000 0.0000 -90.5724 7.9983 -14.8649 11.3182 -18.7743 -1.8770 -0.0000 -0.0000 27.6143 14.3025 -12.2628 -3.0995 -7.1250 0.0000 -0.0000 -8.9804 17.4310 5.9518 -0.0000 -0.0000 0.0000 90.6044 -6.4715 -12.7479 -9.2712 15.5916 -1.2720 0.0000 0.0000 56.1423 14.1537 -25.7265 -6.2470 7.1250 -0.0000 -0.0000 42.9239 -50.5768 -7.0315
-0.4134 17.4747 7.5113 -7.3840 -1.5009 6.8258 0.0000 0.0000 0.0000 -21.7686 -35.7970 24.6513 0.0627 -1.6159 -4.4452 -5.5323 40.1561 -33.6662 0.1014 2.0530 5.6522 0.0000 0.0000 0.0000 27.6919 22.3233 8.5380 -0.0072 -0.5488 1.5081 0.4425 -16.5245 -18.5427 -0.0049 -0.4540 1.2474 5.2945 0.6632 1.2511 1.7191 1.3539 -8.1404 -1.2570 0.3422 -9.2381 -11.1155 -11.5551 -0.1622 19.8831 -16.5917 3.7006 7.0314 -8.0789 3.7751 0.0000 0.0000 0.0000 -90.6867 8.2612 -13.8557 11.5444 -19.1178 -1.9505 -0.0000 -0.0000 26.5942 14.3159 -12.3186 -3.1164 -7.1250 0.0000 -0.0000 -8.9705 17.3733 5.9566 0.0000 0.0000 0.0000 90.4834 -6.4275 -12.1912 -9.3365 15.6951 -1.2896 0.0000 0.0000 55.4952 14.0804 -25.5834 -6.1816 7.1250 -0.0000 -0.0000 42.7557 -50.4778 -6.8743
-0.4128 17.4757 7.5091 -7.3956 -1.5170 6.8366 0.0000 0.0000 0.0000 -21.7153 -35.7693 24.6176 0.0638 -1.6296 -4.4830 -5.5294 40.1453 -33.6494 0.1044 2.0838 5.7373 0.0000 0.0000 0.0000 27.6948 22.3348 8.5051 -0.0074 -0.5564 1.5290 0.4442 -16.5300 -18.5305 -0.0042 -0.4160 1.1431 5.3103 0.6356 1.3188 1.7563 1.3245 -8.1170 -1.2246 0.3281 -9.2551 -11.2601 -11.4569 0.2066 20.1585 -16.4031 3.0848 7.1934 -8.0274 3.5399 -0.0000 0.0000 0.0000 -90.7171 8.4730 -13.5520 11.5552 -19.1343 -1.9540 -0.0000 -0.0000 26.0081 14.6750 -13.9824 -3.6206 -7.1250 0.0000 -0.0000 -8.7143 15.6563 6.1114 -0.0000 0.0000 0.0000 90.4146 -6.3847 -11.8810 -9.3377 15.6970 -1.2900 0.0000 0.0000 55.1103 13.9828 -25.5847 -6.1376 7.1250 -0.0000 -0.0000 42.6756 -50.4950 -6.8771
-0.4110 17.4769 7.5077 -7.3911 -1.5262 6.9033 0.0000 0.0000 0.0000 -21.6626 -35.7850 24.5219 0.0641 -1.6330 -4.4924 -5.5526 40.1728 -33.5792 0.0996 2.0349 5.6022 0.0000 0.0000 0.0000 27.6531 22.3675 8.4355 -0.0073 -0.5506 1.5129 0.4466 -16.5321 -18.5029 -0.0050 -0.4548 1.2497 5.3982 0.6516 1.3302 1.7068 1.3485 -8.1193 -1.3283 0.3308 -9.2612 -11.0133 -11.5810 -0.2068 19.7822 -16.5704 3.4239 6.9877 -8.0765 3.6803 0.0000 -0.0000 0.0000 -90.6278 8.5404 -13.4656 11.5221 -19.0841 -1.9432 -0.0000 -0.0000 25.9264 14.9245 -14.8812 -3.9158 -7.1250 0.0000 -0.0000 -8.5484 14.7217 6.1656 0.0000 -0.0000 0.0000 90.5016 -6.3680 -11.9199 -9.3234 15.6743 -1.2861 0.0000 0.0000 55.0549 14.0060 -25.6326 -6.1588 7.1250 -0.0000 -0.0000 42.7307 -50.5284 -6.9295
-0.4082 17.4776 7.5080 -7.3445 -1.5251 7.0213 0.0000 0.0000 0.0000 -21.6865 -35.8950 24.4259 0.0636 -1.6269 -4.4755 -5.6103 40.2709 -33.5100 0.0863 1.8949 5.2153 0.0000 0.0000 0.0000 27.5485 22.4365 8.3558 -0.0067 -0.5279 1.4507 0.4586 -16.6009 -18.4699 -0.0045 -0.4336 1.1914 5.4753 0.6838 1.2868 1.6221 1.3887 -8.1547 -1.4640 0.3402 -9.2694 -10.9012 -11.6631 -0.4642 19.6846 -16.7007 3.6757 6.9053 -8.1167 3.7999 -0.0000 0.0000 0.0000 -90.5094 8.5595 -13.1083 11.5931 -19.1917 -1.9665 -0.0000 -0.0000 25.9348 14.7728 -14.1054 -3.6771 -7.1250 0.0000 -0.0000 -8.6478 15.5234 6.0886 -0.0000 0.0000 0.0000 90.6415 -6.3912 -12.2142 -9.3114 15.6553 -1.2829 0.0000 0.0000 55.3053 14.1141 -25.6474 -6.2112 7.1250 -0.0000 -0.0000 42.8315 -50.5220 -6.9445
-0.4066 17.4778 7.5102 -7.3464 -1.5472 7.1219 0.0000 0.0000 0.0000 -21.7219 -36.0471 24.4474 0.0640 -1.6320 -4.4898 -5.6286 40.3678 -33.7244 0.0914 1.9496 5.3664 0.0000 0.0000 0.0000 27.5135 22.5022 8.2980 -0.0062 -0.5098 1.4008 0.4663 -16.6382 -18.4376 -0.0038 -0.3966 1.0896 5.5227 0.7127 1.2338 1.6051 1.4268 -8.1874 -1.5110 0.3540 -9.2709 -10.9280 -11.7158 -0.6357 19.6727 -16.7954 3.8853 6.8807 -8.1460 3.9069 -0.0000 -0.0000 0.0000 -90.4921 8.5911 -12.3872 11.8235 -19.5394 -2.0429 -0.0000 -0.0000 25.9324 14.0277 -11.3843 -2.8233 -7.1250 0.0000 -0.0000 -9.1856 18.3404 5.9051 -0.0000 -0.0000 0.0000 90.7041 -6.4361 -12.5487 -9.2835 15.6110 -1.2753 0.0000 0.0000 55.7763 14.1561 -25.6569 -6.2324 7.1250 -0.0000 -0.0000 42.8735 -50.5224 -6.9544
-0.4066 17.4777 7.5128 -7.4269 -1.5621 7.1731 0.0000 0.0000 0.0000 -21.6469 -36.1232 24.4883 0.0651 -1.6467 -4.5303 -5.5990 40.3799 -33.9774 0.1066 2.1052 5.7966 0.0000 0.0000 0.0000 27.6111 22.5912 8.3089 -0.0060 -0.4989 1.3708 0.4673 -16.6629 -18.4706 -0.0049 -0.4506 1.2381 5.5965 0.7317 1.1975 1.6390 1.4573 -8.1954 -1.5181 0.3651 -9.2567 -10.8556 -11.7180 -0.7366 19.5285 -16.8017 4.0292 6.8154 -8.1399 3.9474 -0.0000 0.0000 0.0000 -90.4280 8.4036 -13.6813 11.3705 -18.8539 -1.8939 -0.0000 -0.0000 26.4155 14.7588 -14.9838 -3.8965 -7.1250 0.0000 -0.0000 -8.6612 14.6314 6.2658 -0.0000 0.0000 0.0000 90.7327 -6.4753 -12.8494 -9.2446 15.5494 -1.2649 0.0000 0.0000 56.2634 14.1595 -25.7313 -6.2507 7.1250 -0.0000 -0.0000 42.9325 -50.5796 -7.0368
-0.4063 17.4769 7.5152 -7.4973 -1.5426 7.2065 0.0000 0.0000 0.0000 -21.5634 -36.1621 24.5031 0.0660 -1.6581 -4.5617 -5.6026 40.3966 -34.0104 0.1060 2.0994 5.7804 0.0000 0.0000 0.0000 27.7210 22.6954 8.3678 -0.0056 -0.4841 1.3301 0.4727 -16.7468 -18.5575 -0.0072 -0.5474 1.5041 5.6662 0.7423 1.1527 1.6715 1.4749 -8.1955 -1.5232 0.3708 -9.2294 -10.7817 -11.6571 -0.6317 19.4766 -16.7057 3.9451 6.8070 -8.1019 3.8784 0.0000 -0.0000 0.0000 -90.4500 8.3141 -13.3494 11.4475 -18.9709 -1.9189 -0.0000 -0.0000 26.2964 14.5107 -13.0444 -3.3432 -7.1250 0.0000 -0.0000 -8.8295 16.6221 6.0072 0.0000 -0.0000 0.0000 90.7668 -6.5185 -13.0768 -9.2275 15.5222 -1.2603 0.0000 0.0000 56.4924 14.1663 -25.8728 -6.2856 7.1250 -0.0000 -0.0000 43.0450 -50.6881 -7.1938
